<svg xmlns="http://www.w3.org/2000/svg" viewBox="0 0 512 512" role="img" aria-labelledby="title desc">
  <title id="title">Peripersonal Space Toolkit logo</title>
  <desc id="desc">A listener-centered radius field with a linear sound trajectory.</desc>
  <defs>
    <linearGradient id="field" x1="82" y1="64" x2="430" y2="448" gradientUnits="userSpaceOnUse">
      <stop offset="0" stop-color="#0f4038"/>
      <stop offset="1" stop-color="#16231f"/>
    </linearGradient>
    <linearGradient id="path" x1="132" y1="356" x2="386" y2="154" gradientUnits="userSpaceOnUse">
      <stop offset="0" stop-color="#f2a74b"/>
      <stop offset="1" stop-color="#69cfc3"/>
    </linearGradient>
    <filter id="soft-shadow" x="-20%" y="-20%" width="140%" height="140%">
      <feDropShadow dx="0" dy="14" stdDeviation="18" flood-color="#071612" flood-opacity="0.32"/>
    </filter>
  </defs>
  <rect x="36" y="36" width="440" height="440" rx="96" fill="url(#field)"/>
  <g opacity="0.42" fill="none" stroke="#d9f3ec" stroke-width="4">
    <circle cx="256" cy="256" r="72"/>
    <circle cx="256" cy="256" r="132"/>
    <circle cx="256" cy="256" r="190"/>
  </g>
  <g opacity="0.28" stroke="#d9f3ec" stroke-linecap="round" stroke-width="4">
    <path d="M256 78v356"/>
    <path d="M78 256h356"/>
  </g>
  <g filter="url(#soft-shadow)">
    <path d="M134 352C194 304 239 258 289 220c31-24 61-46 94-67" fill="none" stroke="#071612" stroke-opacity="0.34" stroke-linecap="round" stroke-width="28"/>
    <path d="M134 352C194 304 239 258 289 220c31-24 61-46 94-67" fill="none" stroke="url(#path)" stroke-linecap="round" stroke-width="18"/>
    <path d="M369 156l35-18-10 38" fill="none" stroke="#69cfc3" stroke-linecap="round" stroke-linejoin="round" stroke-width="18"/>
  </g>
  <circle cx="132" cy="354" r="24" fill="#f2a74b"/>
  <circle cx="384" cy="154" r="24" fill="#9de6d9"/>
  <g filter="url(#soft-shadow)">
    <circle cx="256" cy="235" r="30" fill="#f4efe4"/>
    <path d="M206 331c8-50 25-76 50-76s42 26 50 76c-28 18-72 18-100 0z" fill="#f4efe4"/>
    <path d="M225 330c7-30 17-45 31-45s24 15 31 45" fill="none" stroke="#c9bca8" stroke-linecap="round" stroke-width="8" opacity="0.72"/>
  </g>
  <circle cx="256" cy="256" r="204" fill="none" stroke="#d9f3ec" stroke-opacity="0.22" stroke-width="10"/>
</svg>
